<svg width="12" height="12" viewBox="0 0 12 12" fill="none" xmlns="http://www.w3.org/2000/svg">
<path d="M10.8712 0H0.63512C0.285127 0 0 0.283701 0 0.635833V10.8705C0 11.2212 0.284414 11.5056 0.63512 11.5056H6.1452V7.05048H4.64614V5.31405H6.1452V4.03312C6.1452 2.54761 7.05262 1.73785 8.37917 1.73785C9.01429 1.73785 9.56031 1.78418 9.71855 1.80699V3.35951H8.79973C8.07836 3.35951 7.93865 3.70166 7.93865 4.20562V5.31477H9.65868L9.43485 7.05119H7.93865V11.5063H10.8712C11.2212 11.5063 11.5063 11.2226 11.5063 10.8712V0.63512C11.5063 0.283701 11.2212 0 10.8712 0Z" fill="#3B5998"/>
</svg>
