<svg width="25" height="25" viewBox="0 0 25 25" fill="none" xmlns="http://www.w3.org/2000/svg">
<path d="M12.1657 2.96946C15.3743 2.96946 15.7543 2.98205 17.0215 3.04043C18.1925 3.09423 18.8301 3.28997 19.2548 3.45367C19.8134 3.67116 20.2163 3.93215 20.6364 4.35225C21.0565 4.77349 21.3164 5.17413 21.535 5.73503C21.6987 6.15857 21.8944 6.79501 21.9482 7.96603C22.0066 9.2332 22.0181 9.61324 22.0181 12.8229C22.0181 16.0326 22.0066 16.4127 21.9482 17.6799C21.8944 18.8509 21.6975 19.4873 21.535 19.9109C21.3164 20.4718 21.0565 20.8724 20.6364 21.2925C20.2163 21.7137 19.8134 21.9747 19.2548 22.1922C18.8301 22.3571 18.1925 22.5517 17.0215 22.6055C15.7566 22.6638 15.3754 22.6764 12.1657 22.6764C8.95601 22.6764 8.57597 22.6638 7.3088 22.6055C6.13664 22.5517 5.50019 22.3559 5.07666 22.1922C4.51576 21.9747 4.11512 21.7137 3.69502 21.2925C3.27377 20.8724 3.01393 20.4718 2.79529 19.9109C2.6316 19.4873 2.43586 18.852 2.38206 17.6799C2.32483 16.4127 2.31224 16.0326 2.31224 12.8229C2.31224 9.61324 2.32483 9.2332 2.38206 7.96603C2.43586 6.79387 2.6316 6.15857 2.79644 5.73503C3.01393 5.17299 3.27492 4.77349 3.69502 4.35225C4.11626 3.93215 4.51576 3.67116 5.0778 3.45367C5.50134 3.28883 6.13664 3.09309 7.3088 3.03929C8.57597 2.98091 8.95715 2.96946 12.1657 2.96946ZM12.1657 0.803711C8.90106 0.803711 8.49241 0.817447 7.21036 0.875826C5.93174 0.934205 5.0572 1.13796 4.29255 1.43443C3.50271 1.74236 2.83192 2.1533 2.16457 2.82065C1.49607 3.48915 1.08513 4.15994 0.778353 4.94977C0.480733 5.71443 0.276979 6.58782 0.2186 7.86759C0.160221 9.14964 0.146484 9.55829 0.146484 12.8229C0.146484 16.0876 0.160221 16.4963 0.2186 17.7783C0.276979 19.0569 0.480733 19.9315 0.777208 20.6961C1.08513 21.4859 1.49493 22.1567 2.16343 22.8241C2.83078 23.4926 3.50157 23.9035 4.2914 24.2103C5.05605 24.5079 5.9306 24.7117 7.20921 24.7689C8.49241 24.8284 8.90106 24.8422 12.1657 24.8422C15.4304 24.8422 15.839 24.8284 17.1199 24.7701C18.4008 24.7117 19.2731 24.5079 20.0377 24.2115C20.8287 23.9047 21.4995 23.4937 22.168 22.8252C22.8365 22.1579 23.2452 21.4871 23.5542 20.6973C23.8518 19.9326 24.0556 19.0581 24.1128 17.7794C24.1712 16.4962 24.1849 16.0876 24.1849 12.8229C24.1849 9.55829 24.1712 9.14964 24.114 7.86759C24.0556 6.58782 23.8518 5.71443 23.5554 4.94977C23.2463 4.15994 22.8376 3.48915 22.1692 2.82065C21.5007 2.1533 20.8299 1.74236 20.0389 1.43443C19.2742 1.13796 18.402 0.934205 17.1211 0.876971C15.839 0.817447 15.4304 0.803711 12.1657 0.803711Z" fill="url(#paint0_linear)"/>
<path d="M12.1653 6.65088C8.75644 6.65088 5.99316 9.41416 5.99316 12.823C5.99316 16.2319 8.75644 18.9952 12.1653 18.9952C15.5754 18.9952 18.3386 16.2319 18.3386 12.823C18.3386 9.41416 15.5754 6.65088 12.1653 6.65088ZM12.1653 16.8294C9.95264 16.8294 8.15891 15.0357 8.15891 12.823C8.15891 10.6092 9.95264 8.81663 12.1653 8.81663C14.3792 8.81663 16.1717 10.6092 16.1717 12.823C16.1717 15.0357 14.3792 16.8294 12.1653 16.8294Z" fill="url(#paint1_linear)"/>
<path d="M18.582 7.84946C19.3785 7.84946 20.0243 7.20372 20.0243 6.40715C20.0243 5.61059 19.3785 4.96484 18.582 4.96484C17.7854 4.96484 17.1396 5.61059 17.1396 6.40715C17.1396 7.20372 17.7854 7.84946 18.582 7.84946Z" fill="url(#paint2_linear)"/>
<defs>
<linearGradient id="paint0_linear" x1="-0.768859" y1="24.8422" x2="24.6662" y2="-0.463781" gradientUnits="userSpaceOnUse">
<stop stop-color="#8A3AB9"/>
<stop offset="1" stop-color="#CD486B"/>
</linearGradient>
<linearGradient id="paint1_linear" x1="5.52307" y1="18.9952" x2="18.5846" y2="5.99878" gradientUnits="userSpaceOnUse">
<stop stop-color="#8A3AB9"/>
<stop offset="1" stop-color="#CD486B"/>
</linearGradient>
<linearGradient id="paint2_linear" x1="17.0298" y1="7.84946" x2="20.082" y2="4.81275" gradientUnits="userSpaceOnUse">
<stop stop-color="#8A3AB9"/>
<stop offset="1" stop-color="#CD486B"/>
</linearGradient>
</defs>
</svg>
