<svg width="14" height="14" viewBox="0 0 14 14" fill="none" xmlns="http://www.w3.org/2000/svg">
<path d="M11.9074 11.3832C12.4796 11.2916 13.6743 11.0752 13.7076 10.4983C13.7169 10.3361 13.6037 10.192 13.4451 10.1664V10.1658C11.6793 9.86946 10.5675 7.83655 10.739 7.42996C10.8626 7.13596 11.4145 7.02221 11.6577 6.92655C12.8221 6.45988 12.3204 5.6613 11.6326 5.6613C11.3229 5.6613 10.9554 5.9973 10.6165 5.83921C10.7215 4.0513 10.9081 2.79188 9.64347 1.57388C8.00197 -0.00462043 4.67114 0.179129 3.53481 2.77263C3.19705 3.54205 3.32656 4.94846 3.38081 5.83921C3.14164 5.94596 2.7998 5.83105 2.56355 5.71788C1.96797 5.43438 0.949471 6.36596 2.3413 6.92596C2.94447 7.16688 3.51497 7.23571 3.19647 7.89488C3.16206 7.95788 2.96839 8.43855 2.51397 8.97638C1.2038 10.5286 0.0103044 9.89396 0.324138 10.6377V10.6389C0.523054 11.112 1.58005 11.3015 2.09105 11.3832C2.23164 11.651 2.12955 12.2658 2.60847 12.2658C2.86572 12.2658 3.35572 12.0529 4.12339 12.1841C5.15822 12.3603 6.33364 14.549 8.93472 12.6811L8.93531 12.68C9.49589 12.2775 9.88964 11.9794 11.082 12.2185C11.9465 12.3889 11.7061 11.7816 11.9074 11.3832Z" fill="#FFEB3B"/>
</svg>
