<?xml version="1.0" encoding="UTF-8"?>
<svg width="34px" height="24px" viewBox="0 0 34 24" version="1.1" xmlns="http://www.w3.org/2000/svg" xmlns:xlink="http://www.w3.org/1999/xlink">
    <!-- Generator: sketchtool 52.2 (67145) - http://www.bohemiancoding.com/sketch -->
    <title>0509898C-4470-4D1C-B6BE-C0AF581AA322</title>
    <desc>Created with sketchtool.</desc>
    <defs>
        <linearGradient x1="101.375228%" y1="-5.62278237%" x2="-3.53014282%" y2="102.259281%" id="linearGradient-1">
            <stop stop-color="#F5515F" offset="0%"></stop>
            <stop stop-color="#9F041B" offset="100%"></stop>
        </linearGradient>
    </defs>
    <g id="Campaign-Trellis-Brands" stroke="none" stroke-width="1" fill="none" fill-rule="evenodd">
        <g id="Talent-Profile" transform="translate(-76.000000, -392.000000)">
            <g id="youtube-icon-copy" transform="translate(75.181829, 391.327163)">
                <g id="youtube-icon" transform="translate(0.813438, 1.087735)">
                    <g id="Layer_1" fill-rule="nonzero">
                        <g id="Group">
                            <polyline id="Shape" fill="#FFFFFF" points="13.4222989 16.2047619 22.5110345 11.5634921 13.4222989 6.88571429 13.4222989 16.2047619"></polyline>
                            <polyline id="Shape" fill="#E8E0E0" points="21.3910345 12.1365079 21.3910345 12.1349206 22.5110345 11.5634921 21.3910345 12.1365079"></polyline>
                            <polyline id="Shape" fill="#E8E0E0" points="21.3910345 12.1349206 13.4222989 6.88571429 22.5110345 11.5634921 21.3910345 12.1349206"></polyline>
                            <path d="M33.3763218,5.27301587 C33.3763218,5.27301587 33.0464368,2.98571429 32.0390805,1.97777778 C30.7597701,0.657142857 29.325977,0.650793651 28.6694253,0.571428571 C23.9625287,0.238095238 16.9029885,0.238095238 16.9029885,0.238095238 L16.8868966,0.238095238 C16.8868966,0.238095238 9.82896552,0.238095238 5.12206897,0.571428571 C4.46551724,0.650793651 3.03333333,0.657142857 1.7508046,1.97777778 C0.743448276,2.98571429 0.416781609,5.27301587 0.416781609,5.27301587 C0.416781609,5.27301587 0.0804597701,7.95555556 0.0804597701,10.6428571 L0.0804597701,13.1571429 C0.0804597701,15.8412698 0.416781609,18.5269841 0.416781609,18.5269841 C0.416781609,18.5269841 0.743448276,20.8111111 1.7508046,21.8190476 C3.03333333,23.1396825 4.71333333,23.1 5.4616092,23.2396825 C8.15218391,23.4936508 16.8933333,23.5714286 16.8933333,23.5714286 C16.8933333,23.5714286 23.9625287,23.5587302 28.6678161,23.2269841 C29.3243678,23.1492063 30.7581609,23.1396825 32.0374713,21.8190476 C33.0448276,20.8111111 33.3747126,18.5269841 33.3747126,18.5269841 C33.3747126,18.5269841 33.7110345,15.8428571 33.7110345,13.1571429 L33.7110345,10.6428571 C33.7126437,7.95555556 33.3763218,5.27301587 33.3763218,5.27301587 L33.3763218,5.27301587 Z M13.423908,16.2047619 L13.4222989,6.88571429 L22.5094253,11.5634921 L13.423908,16.2047619 Z" id="Shape" fill="url(#linearGradient-1)"></path>
                        </g>
                    </g>
                </g>
            </g>
        </g>
    </g>
</svg>