<svg width="36" height="25" viewBox="0 0 36 25" fill="none" xmlns="http://www.w3.org/2000/svg">
<path d="M34.7621 5.6971C34.7621 5.6971 34.4184 3.3145 33.3691 2.26456C32.0365 0.888901 30.5429 0.882287 29.859 0.799615C24.956 0.452393 17.6023 0.452393 17.6023 0.452393H17.5856C17.5856 0.452393 10.2336 0.452393 5.33053 0.799615C4.64663 0.882287 3.15477 0.888901 1.8188 2.26456C0.769471 3.3145 0.429193 5.6971 0.429193 5.6971C0.429193 5.6971 0.0788574 8.49142 0.0788574 11.2907V13.9097C0.0788574 16.7057 0.429193 19.5033 0.429193 19.5033C0.429193 19.5033 0.769471 21.8826 1.8188 22.9326C3.15477 24.3082 4.90477 24.2669 5.68422 24.4124C8.4869 24.6769 17.5923 24.7579 17.5923 24.7579C17.5923 24.7579 24.956 24.7447 29.8574 24.3992C30.5413 24.3181 32.0348 24.3082 33.3674 22.9326C34.4167 21.8826 34.7604 19.5033 34.7604 19.5033C34.7604 19.5033 35.1107 16.7074 35.1107 13.9097V11.2907C35.1124 8.49142 34.7621 5.6971 34.7621 5.6971ZM13.9783 17.0843L13.9766 7.377L23.4424 12.2497L13.9783 17.0843Z" fill="url(#paint0_linear)"/>
<defs>
<linearGradient id="paint0_linear" x1="35.5925" y1="-0.914257" x2="11.9399" y2="34.1437" gradientUnits="userSpaceOnUse">
<stop stop-color="#F5515F"/>
<stop offset="1" stop-color="#9F041B"/>
</linearGradient>
</defs>
</svg>
